# xmcd CD database file
#
# Track frame offsets:
#	150
#	10049
#	18590
#
# Disc length: 518 seconds
#
# Revision: 0
# Processed by: cddbd v1.5.1PL0 Copyright (c) Steve Scherf et al.
# Submitted via: CDex 1.51
#
DISCID=16020403
DTITLE=TWOFIVE/SQUARE ENIX/岩垂徳行 - GRANDIA III -original sound tracks- オフィシャル通販特典
DYEAR=2005
DGENRE=Game
TTITLE0=伝説の飛行王
TTITLE1=Requiem of Birth 〜 伝説の飛行王
TTITLE2=月へ
EXTD=YEAR: 2005
EXTT0=
EXTT1=
EXTT2=
PLAYORDER=
